<?xml version="1.0" standalone="no"?>
<!DOCTYPE svg PUBLIC "-//W3C//DTD SVG 20010904//EN"
 "http://www.w3.org/TR/2001/REC-SVG-20010904/DTD/svg10.dtd">
<svg version="1.0" xmlns="http://www.w3.org/2000/svg"
 width="140.000000pt" height="140.000000pt" viewBox="0 0 140.000000 140.000000"
 preserveAspectRatio="xMidYMid meet">
<metadata>
Created by potrace 1.14, written by Peter Selinger 2001-2017
</metadata>
<g transform="translate(0.000000,140.000000) scale(0.100000,-0.100000)"
fill="#000000" stroke="none">
<path d="M615 1243 c2 -10 4 -42 4 -70 1 -30 6 -53 12 -53 5 0 8 4 4 9 -3 5 2
16 11 25 17 18 50 7 61 -20 3 -8 9 -14 14 -14 5 0 3 11 -3 25 -9 19 -9 28 0
37 34 34 -1 78 -63 78 -36 0 -43 -3 -40 -17z m88 -12 c16 -16 3 -44 -25 -52
-18 -5 -31 -3 -38 6 -12 15 -10 46 4 57 11 8 46 2 59 -11z"/>
<path d="M770 1256 c0 -2 9 -25 20 -51 11 -26 18 -58 16 -71 -3 -13 0 -24 5
-24 5 0 9 9 9 19 0 11 16 38 35 61 43 51 39 66 -4 18 l-30 -33 -15 37 c-13 31
-36 59 -36 44z"/>
<path d="M490 1237 c-19 -5 -36 -10 -38 -11 -2 -3 28 -129 33 -134 5 -6 95 21
95 28 0 5 -15 4 -32 -1 -47 -13 -55 -12 -61 11 -5 18 17 40 38 40 3 0 10 0 15
0 6 0 10 4 10 9 0 6 -12 6 -32 0 -23 -6 -34 -5 -40 4 -10 15 -10 37 0 38 28 3
58 11 65 18 10 10 -10 10 -53 -2z"/>
<path d="M996 1189 c3 -6 0 -16 -7 -21 -11 -7 -9 -8 5 -4 13 4 17 2 13 -8 -3
-8 1 -13 11 -12 22 1 32 27 18 42 -8 9 -13 9 -18 0 -6 -8 -8 -8 -8 2 0 6 -5
12 -11 12 -5 0 -7 -5 -3 -11z"/>
<path d="M336 1113 c14 -32 29 -61 32 -65 4 -3 27 4 52 17 49 26 42 33 -11 11
l-34 -14 -20 51 c-11 28 -26 52 -33 55 -6 2 -1 -21 14 -55z"/>
<path d="M1160 1102 c-31 -10 -33 -49 -4 -73 8 -6 14 -20 14 -30 0 -28 -35
-24 -58 6 -11 14 -23 22 -26 17 -7 -12 28 -49 55 -57 14 -5 27 -1 38 9 15 16
14 20 -7 57 -13 22 -20 44 -17 49 10 16 30 12 50 -10 10 -11 23 -20 28 -20 12
0 -21 39 -43 50 -8 4 -22 5 -30 2z"/>
<path d="M199 1063 c11 -16 31 -41 44 -58 l25 -29 36 24 c20 14 36 29 36 33 0
9 -36 -9 -45 -23 -12 -19 -30 -9 -64 35 -18 25 -38 45 -43 45 -5 0 0 -12 11
-27z"/>
<path d="M1283 997 c14 -22 13 -24 -34 -57 -27 -18 -49 -37 -49 -42 0 -10 23
1 69 36 l34 25 18 -22 c29 -34 22 -2 -8 42 -29 42 -56 58 -30 18z"/>
<path d="M116 923 c43 -79 42 -78 50 -70 3 3 1 14 -4 23 -15 27 21 74 56 74
42 0 13 16 -52 29 -91 17 -90 18 -50 -56z m47 11 c-8 -13 -17 -24 -18 -24 -2
0 -12 15 -23 34 l-20 33 39 -9 c37 -10 38 -11 22 -34z"/>
<path d="M649 833 c-57 -65 -108 -123 -114 -129 -5 -6 -20 -23 -32 -38 -15
-17 -33 -26 -52 -26 -35 0 -46 -13 -32 -38 8 -15 3 -27 -21 -57 -35 -41 -11
-36 29 7 19 20 34 24 90 26 37 2 85 7 108 12 22 5 56 12 75 15 63 11 200 62
240 90 30 20 40 35 40 54 0 49 -11 51 -70 17 -31 -18 -85 -44 -120 -59 -64
-25 -246 -68 -254 -60 -8 8 74 75 86 71 7 -3 37 21 66 53 125 136 127 139 86
166 -21 13 -27 8 -125 -104z m-165 -234 c-3 -5 -10 -7 -15 -3 -5 3 -7 10 -3
15 3 5 10 7 15 3 5 -3 7 -10 3 -15z"/>
<path d="M16 838 c-50 -72 36 -156 103 -100 42 35 31 103 -17 101 l-27 -1 28
-11 c43 -17 30 -83 -18 -87 -40 -4 -52 1 -64 26 -9 21 -9 32 4 57 18 37 13 47
-9 15z"/>
<path d="M1293 850 c-46 -19 -57 -83 -20 -118 42 -39 101 -24 120 30 10 27
-12 74 -39 87 -29 13 -31 13 -61 1z m69 -27 c18 -16 23 -49 10 -69 -25 -38
-86 -33 -101 8 -21 58 45 103 91 61z"/>
<path d="M1260 659 c0 -5 6 -9 14 -9 36 0 27 -55 -10 -64 -13 -4 -24 -11 -24
-16 0 -6 9 -6 24 0 21 7 26 6 31 -10 12 -38 64 -36 83 3 12 25 25 67 20 67 -2
0 -33 9 -71 19 -37 11 -67 15 -67 10z m118 -44 c3 -2 -1 -18 -8 -35 -21 -52
-74 -33 -63 23 5 26 9 28 36 23 17 -3 33 -8 35 -11z"/>
<path d="M41 582 c-1 -7 -5 -10 -11 -7 -14 9 -12 -9 3 -24 10 -10 8 -11 -8 -5
-17 7 -18 6 -5 -8 8 -9 18 -12 21 -7 3 6 14 7 25 3 16 -5 16 -4 4 5 -13 10
-13 12 0 21 13 8 13 10 -2 10 -9 0 -19 6 -21 13 -4 9 -6 9 -6 -1z"/>
<path d="M1185 494 c-30 -40 -27 -60 4 -23 11 13 20 28 21 32 0 14 40 -13 40
-27 0 -8 -7 -19 -15 -26 -8 -7 -15 -20 -15 -28 0 -10 9 -4 23 16 21 28 26 30
42 18 19 -14 17 -25 -11 -63 -9 -13 -13 -23 -8 -23 5 0 21 17 35 38 l27 37
-45 35 c-69 53 -68 53 -98 14z"/>
<path d="M218 457 c31 -32 32 -34 14 -50 -17 -16 -20 -16 -42 8 -34 36 -47 31
-15 -7 24 -28 25 -33 11 -47 -14 -14 -19 -12 -46 14 -16 16 -32 26 -35 24 -2
-3 11 -21 30 -39 l35 -34 50 49 50 49 -32 33 c-18 18 -36 33 -42 33 -5 0 5
-15 22 -33z"/>
<path d="M298 370 c3 -25 1 -30 -15 -30 -26 0 -43 -38 -31 -66 6 -12 24 -28
41 -36 l32 -15 32 54 c33 54 45 95 18 60 -15 -21 -54 -15 -56 9 -3 29 -4 33
-15 44 -8 8 -9 2 -6 -20z m30 -56 c21 -14 21 -17 7 -45 l-16 -30 -29 18 c-34
19 -37 34 -14 57 19 20 24 20 52 0z"/>
<path d="M895 304 c-11 -8 -25 -12 -32 -10 -16 7 -16 4 1 -29 8 -14 16 -21 18
-14 3 9 9 9 27 0 17 -10 20 -16 12 -24 -19 -19 -12 -44 14 -49 33 -7 51 15 38
45 -6 12 -7 31 -3 42 17 46 -32 72 -75 39z m61 -17 c9 -28 -8 -40 -39 -26 -31
14 -34 24 -11 37 25 14 43 10 50 -11z m5 -90 c-5 -5 -17 -7 -26 -3 -14 5 -15
9 -5 21 10 12 16 13 27 4 9 -8 10 -16 4 -22z"/>
<path d="M1106 307 c3 -10 1 -17 -5 -17 -8 0 -8 -4 1 -14 7 -8 15 -12 17 -10
2 2 10 -1 18 -8 11 -8 12 -7 7 6 -3 9 -1 16 5 16 6 0 11 5 11 11 0 5 -5 7 -11
4 -5 -4 -19 1 -30 11 -18 16 -19 16 -13 1z"/>
<path d="M421 279 c-33 -54 -3 -109 60 -109 29 0 42 6 58 26 40 50 6 114 -61
114 -32 0 -41 -5 -57 -31z m97 5 c31 -21 30 -69 -2 -89 -50 -33 -108 13 -86
69 14 38 51 46 88 20z"/>
<path d="M609 278 c-5 -13 -3 -138 2 -138 3 0 21 24 39 52 l32 53 24 -47 c25
-49 43 -68 45 -46 6 73 5 128 -2 128 -4 0 -9 -24 -11 -52 l-3 -53 -23 43 c-12
23 -26 42 -30 42 -4 0 -20 -19 -35 -43 l-28 -42 3 53 c2 28 0 52 -4 52 -5 0
-8 -1 -9 -2z"/>
</g>
</svg>
